<?xml version="1.0" encoding="UTF-8"?>
<!DOCTYPE svg PUBLIC "-//W3C//DTD SVG 1.1//EN" "http://www.w3.org/Graphics/SVG/1.1/DTD/svg11.dtd">
<!-- Creator: CorelDRAW -->
<svg xmlns="http://www.w3.org/2000/svg" xml:space="preserve" width="2048px" height="2048px" style="shape-rendering:geometricPrecision; text-rendering:geometricPrecision; image-rendering:optimizeQuality; fill-rule:evenodd; clip-rule:evenodd"
viewBox="0 0 2048 2048"
 xmlns:xlink="http://www.w3.org/1999/xlink">
 <defs>
  <style type="text/css">
   <![CDATA[
    .fil0 {fill:none}
    .fil3 {fill:#6B4630}
    .fil2 {fill:#7E5740}
    .fil1 {fill:#966F52}
    .fil4 {fill:#F9A825}
    .fil5 {fill:#FBC02D;fill-rule:nonzero}
   ]]>
  </style>
 </defs>
 <g id="Layer_x0020_1">
  <metadata id="CorelCorpID_0Corel-Layer"/>
  <rect class="fil0" x="256" y="255.999" width="1536" height="1536"/>
  <rect class="fil0" width="2048" height="2048"/>
  <g id="_520291760">
   <path id="_520286336" class="fil1" d="M1791.18 753.679l0.263386 0 0.291733 460.755 0.0188977 30.7181 -30.6166 0 -1474.42 0 -30.7181 0 0 -30.7181c0,-287.398 0.0862205,-119.258 0.0578741,-173.111 -0.0578741,-112.52 -0.114567,-220.303 0.0625985,-287.645 0.15,-57.0721 2.0811,-91.9453 19.0075,-116.878 19.3264,-28.4717 49.3583,-36.7063 103.741,-36.7063 526.477,0 763.586,0 1290.11,0 81.0154,0 109.421,54.7725 118.932,100.73 2.09291,10.1138 3.17953,19.4941 3.69095,27.4973 0.494882,7.73623 0.45,14.7378 0.271654,19.8071 -0.0661418,1.91811 -0.311811,3.7689 -0.700394,5.55z"/>
   <polygon id="_520305704" class="fil2" points="286.718,1234.25 1761.07,1234.25 1791.79,1234.25 1791.79,1264.96 1791.79,1572.13 1791.79,1602.85 1761.07,1602.85 286.718,1602.85 255.999,1602.85 255.999,1572.13 255.999,1264.96 255.999,1234.25 "/>
   <path id="_520278656" class="fil2" d="M1024 445.152c102.594,0 190.136,64.3831 224.471,154.942l-70.3642 0c-29.9918,-54.2221 -87.7572,-90.9426 -154.107,-90.9426 -66.3497,0 -124.115,36.7205 -154.107,90.9426l-70.3642 0c34.3347,-90.5587 121.877,-154.942 224.471,-154.942z"/>
   <polygon id="_520292000" class="fil3" points="286.718,1234.25 1761.07,1234.25 1791.79,1234.25 1791.79,1232.49 1791.79,1214.91 1791.79,1213.15 1761.07,1213.15 286.718,1213.15 255.999,1213.15 255.999,1214.91 255.999,1232.49 255.999,1234.25 "/>
   <path id="_520295912" class="fil4" d="M983.452 1149.15l80.882 0c16.5,0 29.9988,13.5 29.9988,29.9988l0 100.003c0,16.4988 -13.5,29.9988 -29.9988,29.9988l-80.882 0c-16.4988,0 -29.9988,-13.4988 -29.9988,-29.9988l0 -100.003c0,-16.5 13.4988,-29.9988 29.9988,-29.9988z"/>
   <path id="_520300016" class="fil5" d="M937.455 1235.18c-8.28426,0 -15,6.71575 -15,15 0,8.28426 6.71575,15 15,15l172.875 0c8.28426,0 15,-6.71575 15,-15 0,-8.28426 -6.71575,-15 -15,-15l-172.875 0z"/>
  </g>
 </g>
</svg>
