<?xml version="1.0" encoding="utf-8"?>
<!-- Generator: Adobe Illustrator 22.0.0, SVG Export Plug-In . SVG Version: 6.00 Build 0)  -->
<svg version="1.1" xmlns="http://www.w3.org/2000/svg" xmlns:xlink="http://www.w3.org/1999/xlink" x="0px" y="0px"
	 viewBox="0 0 256 256" style="enable-background:new 0 0 256 256;" xml:space="preserve">
<style type="text/css">
	.st0{display:none;}
	.st1{display:inline;}
	.st2{fill:none;stroke:#6B1D1D;stroke-width:0.5;stroke-miterlimit:10;}
	.st3{fill:#3A312A;}
	.st4{fill:#87796F;}
	.st5{fill:#D5DE58;}
	.st6{fill:#695B51;}
	.st7{fill:#FCE8CB;}
	.st8{fill:#F16C7A;}
	.st9{fill:#8AC6DD;}
	.st10{fill:#DECAAD;}
	.st11{fill:#D6DF58;}
	.st12{fill-rule:evenodd;clip-rule:evenodd;fill:#FCE8CB;}
	.st13{fill:#F5978A;}
	.st14{fill:#D7E057;}
	.st15{fill-rule:evenodd;clip-rule:evenodd;fill:#87796F;}
	.st16{fill:#6CA8BF;}
	.st17{fill:#B9C239;}
	.st18{fill:#D34E5C;}
	.st19{fill:#FAE6CA;}
	.st20{fill:#F8E4C8;}
	.st21{fill:#8AC5DC;}
	.st22{fill:#EF6D7A;}
	.st23{fill:#EB6E7A;}
	.st24{fill:#89C4DB;}
	.st25{fill-rule:evenodd;clip-rule:evenodd;fill:#F16C7A;}
	.st26{fill:#F7E3C7;}
	.st27{fill:#F6E2C6;}
	.st28{fill:#ED6E7A;}
	.st29{fill:#8AC3DA;}
	.st30{fill:#D5DC57;}
	.st31{fill-rule:evenodd;clip-rule:evenodd;fill:#D7E057;}
	.st32{fill-rule:evenodd;clip-rule:evenodd;fill:#F8E4C8;}
	.st33{fill:#D4DB56;}
	.st34{fill:#F59689;}
	.st35{fill:#DDC9AC;}
	.st36{fill:#D24E5C;}
	.st37{fill:#6A5C52;}
	.st38{fill:#6CA6BE;}
	.st39{fill:#B8C136;}
	.st40{fill-rule:evenodd;clip-rule:evenodd;fill:#FAE6CA;}
</style>
<g id="Layer_2" class="st0">
	<g class="st1">
		<g>
			<line class="st2" x1="0" y1="4.829" x2="256" y2="4.829"/>
			<line class="st2" x1="0" y1="16.56" x2="256" y2="16.56"/>
			<line class="st2" x1="0" y1="28.29" x2="256" y2="28.29"/>
			<line class="st2" x1="0" y1="40.021" x2="256" y2="40.021"/>
			<line class="st2" x1="0" y1="51.751" x2="256" y2="51.751"/>
			<line class="st2" x1="0" y1="63.482" x2="256" y2="63.482"/>
			<line class="st2" x1="0" y1="75.213" x2="256" y2="75.213"/>
			<line class="st2" x1="0" y1="86.943" x2="256" y2="86.943"/>
			<line class="st2" x1="0" y1="98.674" x2="256" y2="98.674"/>
			<line class="st2" x1="0" y1="110.404" x2="256" y2="110.404"/>
			<line class="st2" x1="0" y1="122.135" x2="256" y2="122.135"/>
			<line class="st2" x1="0" y1="133.865" x2="256" y2="133.865"/>
			<line class="st2" x1="0" y1="145.596" x2="256" y2="145.596"/>
			<line class="st2" x1="0" y1="157.326" x2="256" y2="157.326"/>
			<line class="st2" x1="0" y1="169.057" x2="256" y2="169.057"/>
			<line class="st2" x1="0" y1="180.788" x2="256" y2="180.788"/>
			<line class="st2" x1="0" y1="192.518" x2="256" y2="192.518"/>
			<line class="st2" x1="0" y1="204.249" x2="256" y2="204.249"/>
			<line class="st2" x1="0" y1="215.979" x2="256" y2="215.979"/>
			<line class="st2" x1="0" y1="227.71" x2="256" y2="227.71"/>
			<line class="st2" x1="0" y1="239.44" x2="256" y2="239.44"/>
			<line class="st2" x1="0" y1="251.171" x2="256" y2="251.171"/>
		</g>
		<g>
			<line class="st2" x1="251.171" y1="0" x2="251.171" y2="256"/>
			<line class="st2" x1="239.44" y1="0" x2="239.44" y2="256"/>
			<line class="st2" x1="227.71" y1="0" x2="227.71" y2="256"/>
			<line class="st2" x1="215.979" y1="0" x2="215.979" y2="256"/>
			<line class="st2" x1="204.249" y1="0" x2="204.249" y2="256"/>
			<line class="st2" x1="192.518" y1="0" x2="192.518" y2="256"/>
			<line class="st2" x1="180.788" y1="0" x2="180.788" y2="256"/>
			<line class="st2" x1="169.057" y1="0" x2="169.057" y2="256"/>
			<line class="st2" x1="157.326" y1="0" x2="157.326" y2="256"/>
			<line class="st2" x1="145.596" y1="0" x2="145.596" y2="256"/>
			<line class="st2" x1="133.865" y1="0" x2="133.865" y2="256"/>
			<line class="st2" x1="122.135" y1="0" x2="122.135" y2="256"/>
			<line class="st2" x1="110.404" y1="0" x2="110.404" y2="256"/>
			<line class="st2" x1="98.674" y1="0" x2="98.674" y2="256"/>
			<line class="st2" x1="86.943" y1="0" x2="86.943" y2="256"/>
			<line class="st2" x1="75.213" y1="0" x2="75.213" y2="256"/>
			<line class="st2" x1="63.482" y1="0" x2="63.482" y2="256"/>
			<line class="st2" x1="51.751" y1="0" x2="51.751" y2="256"/>
			<line class="st2" x1="40.021" y1="0" x2="40.021" y2="256"/>
			<line class="st2" x1="28.29" y1="0" x2="28.29" y2="256"/>
			<line class="st2" x1="16.56" y1="0" x2="16.56" y2="256"/>
			<line class="st2" x1="4.829" y1="0" x2="4.829" y2="256"/>
		</g>
	</g>
</g>
<g id="Layer_1">
	<g>
		<path class="st8" d="M61.616,16.373L37.168,16.36C25.755,16.354,16.5,25.605,16.5,37.017v158.966
			c0,11.408,9.249,20.657,20.657,20.657h119.186c11.408,0,20.657-9.249,20.657-20.657V68.485l-0.304-31.604
			c-0.109-11.327-9.318-20.453-20.645-20.459l-81.666-0.043L61.616,16.373z"/>
		<path class="st3" d="M156.343,218.141H37.157C24.94,218.141,15,208.201,15,195.983V37.018c0-5.921,2.306-11.486,6.494-15.672
			c4.184-4.183,9.747-6.485,15.663-6.485c0.004,0,0.007,0,0.012,0l24.448,0.013c0.828,0,1.5,0.672,1.499,1.501
			c0,0.828-0.672,1.499-1.5,1.499c0,0,0,0-0.001,0L37.167,17.86c-0.003,0-0.007,0-0.01,0c-5.116,0-9.924,1.991-13.543,5.607
			C19.994,27.087,18,31.898,18,37.018v158.966c0,10.564,8.594,19.157,19.157,19.157h119.186c10.563,0,19.157-8.594,19.157-19.157
			V68.485l-0.304-31.59c-0.101-10.457-8.689-18.968-19.146-18.974L74.384,17.88c-0.828,0-1.499-0.672-1.499-1.501
			c0-0.828,0.672-1.499,1.5-1.499c0,0,0,0,0.001,0l81.667,0.042c12.094,0.006,22.028,9.851,22.144,21.944l0.304,31.605v127.513
			C178.5,208.201,168.561,218.141,156.343,218.141z"/>
		<path class="st26" d="M39.5,127.291v91.495c0,11.526,9.329,20.854,20.854,20.854h118.792c11.525,0,20.854-9.328,20.854-20.854
			V91.485l-52.135-52.136h-87.51c-11.525,0-20.854,9.329-20.854,20.854v53.871V127.291z"/>
		<path class="st3" d="M179.146,241.141H60.354C48.028,241.141,38,231.112,38,218.786v-91.495c0-0.828,0.671-1.5,1.5-1.5
			s1.5,0.672,1.5,1.5v91.495c0,10.672,8.682,19.354,19.354,19.354h118.792c10.672,0,19.354-8.683,19.354-19.354V92.106
			L147.243,40.85H60.354C49.682,40.85,41,49.532,41,60.204v53.87c0,0.828-0.671,1.5-1.5,1.5s-1.5-0.672-1.5-1.5v-53.87
			C38,47.878,48.028,37.85,60.354,37.85h87.51c0.398,0,0.779,0.158,1.061,0.439l52.136,52.136c0.281,0.281,0.439,0.663,0.439,1.061
			v127.301C201.5,231.112,191.472,241.141,179.146,241.141z"/>
		<path class="st3" d="M170.506,156.206H68.994c-0.829,0-1.5-0.672-1.5-1.5c0-0.828,0.671-1.5,1.5-1.5h101.513
			c0.829,0,1.5,0.672,1.5,1.5C172.006,155.534,171.335,156.206,170.506,156.206z"/>
		<path class="st3" d="M170.506,181.093H68.994c-0.829,0-1.5-0.672-1.5-1.5c0-0.828,0.671-1.5,1.5-1.5h101.513
			c0.829,0,1.5,0.672,1.5,1.5C172.006,180.421,171.335,181.093,170.506,181.093z"/>
		<path class="st3" d="M170.506,205.98H68.994c-0.829,0-1.5-0.672-1.5-1.5c0-0.828,0.671-1.5,1.5-1.5h101.513
			c0.829,0,1.5,0.672,1.5,1.5C172.006,205.308,171.335,205.98,170.506,205.98z"/>
		<path class="st26" d="M200,91.485v0.129h-33.668c-10.14,0-18.36-8.22-18.36-18.36V39.457L200,91.485z"/>
		<path class="st3" d="M200,93.114h-33.667c-10.951,0-19.86-8.909-19.86-19.86V39.457c0-0.606,0.365-1.153,0.926-1.386
			c0.561-0.233,1.207-0.104,1.635,0.325l52.028,52.028c0.281,0.281,0.439,0.663,0.439,1.061v0.129
			C201.5,92.442,200.829,93.114,200,93.114z M149.472,43.078v30.176c0,9.297,7.563,16.86,16.86,16.86h30.175L149.472,43.078z"/>
		<path class="st14" d="M226.278,26.131c0,0,3.408,12.659,13.222,13.246c0,0-13.1,4.525-13.321,14.202
			c0,0-2.579-13.572-12.925-14.059C213.254,39.521,225.304,37.695,226.278,26.131z"/>
		<path class="st3" d="M226.177,55.079c-0.712,0-1.335-0.506-1.472-1.217c-0.024-0.125-2.495-12.418-11.523-12.844
			c-0.77-0.036-1.387-0.65-1.427-1.421c-0.04-0.77,0.511-1.444,1.273-1.561c0.441-0.068,10.895-1.816,11.755-12.032
			c0.061-0.726,0.634-1.301,1.359-1.367c0.722-0.07,1.393,0.398,1.584,1.102c0.032,0.116,3.259,11.626,11.864,12.142
			c0.714,0.043,1.297,0.584,1.396,1.292c0.098,0.708-0.319,1.388-0.994,1.622c-0.121,0.042-12.118,4.311-12.313,12.819
			c-0.018,0.767-0.61,1.396-1.374,1.46C226.262,55.077,226.219,55.079,226.177,55.079z M218.436,39.35
			c3.878,1.969,6.231,5.746,7.587,8.877c2.027-4.022,5.942-6.788,8.949-8.428c-4.134-1.842-6.783-5.651-8.334-8.723
			C224.846,35.437,221.367,37.945,218.436,39.35z"/>
		<path class="st14" d="M204.579,43.112c0,0,2.411,8.954,9.352,9.369c0,0-9.266,3.201-9.422,10.045c0,0-1.824-9.6-9.142-9.944
			C195.367,52.582,203.891,51.291,204.579,43.112z"/>
		<path class="st3" d="M204.508,64.026c-0.714,0-1.337-0.507-1.473-1.22c-0.016-0.082-1.704-8.442-7.739-8.726
			c-0.77-0.036-1.387-0.65-1.427-1.421c-0.039-0.77,0.511-1.444,1.273-1.561c0.296-0.047,7.364-1.242,7.942-8.113
			c0.061-0.726,0.635-1.303,1.36-1.368c0.73-0.062,1.392,0.399,1.582,1.102l0,0c0.021,0.079,2.228,7.92,7.994,8.266
			c0.714,0.043,1.299,0.584,1.396,1.293c0.098,0.709-0.32,1.389-0.996,1.622c-0.081,0.028-8.282,2.952-8.412,8.661
			c-0.018,0.768-0.611,1.397-1.376,1.461C204.591,64.024,204.549,64.026,204.508,64.026z M199.989,52.499
			c2.107,1.332,3.523,3.395,4.447,5.279c1.376-2.232,3.515-3.871,5.365-4.972c-2.287-1.269-3.884-3.35-4.941-5.225
			C203.686,49.869,201.845,51.458,199.989,52.499z"/>
		<path class="st14" d="M204.579,16.454c0,0,2.411,8.954,9.352,9.37c0,0-9.266,3.201-9.422,10.045c0,0-1.824-9.6-9.142-9.944
			C195.367,25.925,203.891,24.633,204.579,16.454z"/>
		<path class="st3" d="M204.508,37.369c-0.713,0-1.337-0.507-1.472-1.22c-0.016-0.082-1.704-8.442-7.739-8.726
			c-0.77-0.036-1.387-0.65-1.427-1.421c-0.039-0.77,0.511-1.444,1.273-1.561c0.296-0.047,7.364-1.242,7.942-8.113
			c0.061-0.726,0.635-1.303,1.36-1.368c0.73-0.07,1.392,0.4,1.582,1.102l0,0c0.021,0.079,2.228,7.92,7.993,8.265
			c0.715,0.042,1.299,0.584,1.397,1.293c0.098,0.709-0.319,1.388-0.996,1.622c-0.081,0.028-8.282,2.953-8.412,8.662
			c-0.018,0.768-0.611,1.397-1.376,1.461C204.591,37.367,204.549,37.369,204.508,37.369z M199.989,25.842
			c2.107,1.332,3.523,3.394,4.447,5.279c1.376-2.232,3.515-3.872,5.364-4.973c-2.287-1.269-3.884-3.35-4.941-5.224
			C203.686,23.212,201.845,24.801,199.989,25.842z"/>
		<polygon class="st4" points="105.575,142.64 101.136,133.717 91,134.609 108.706,102.477 123.281,110.509 		"/>
		<path class="st3" d="M105.575,144.141c-0.01,0-0.021,0-0.032,0c-0.558-0.012-1.063-0.332-1.312-0.832l-3.983-8.008l-9.117,0.802
			c-0.549,0.049-1.085-0.211-1.388-0.676c-0.302-0.464-0.324-1.057-0.057-1.542l17.706-32.131c0.4-0.726,1.311-0.991,2.038-0.59
			l14.575,8.031c0.348,0.191,0.606,0.515,0.717,0.896c0.11,0.382,0.065,0.793-0.127,1.141l-17.706,32.132
			C106.625,143.844,106.121,144.141,105.575,144.141z M101.137,132.217c0.565,0,1.087,0.319,1.342,0.832l3.164,6.36l15.601-28.311
			l-11.948-6.583l-15.624,28.352l7.333-0.645C101.049,132.219,101.093,132.217,101.137,132.217z"/>
		<polygon class="st4" points="134.425,142.64 138.864,133.717 149,134.609 131.294,102.477 116.719,110.509 		"/>
		<path class="st3" d="M134.425,144.141c-0.546,0-1.05-0.297-1.314-0.776l-17.706-32.132c-0.192-0.348-0.237-0.759-0.127-1.141
			c0.111-0.382,0.369-0.705,0.717-0.896l14.575-8.031c0.727-0.401,1.638-0.136,2.038,0.59l17.706,32.131
			c0.267,0.485,0.245,1.078-0.057,1.542c-0.303,0.465-0.842,0.724-1.388,0.676l-9.117-0.802l-3.983,8.008
			c-0.249,0.5-0.754,0.82-1.312,0.832C134.446,144.141,134.435,144.141,134.425,144.141z M118.756,111.099l15.601,28.311l3.164-6.36
			c0.275-0.553,0.872-0.88,1.474-0.826l7.333,0.645l-15.624-28.352L118.756,111.099z"/>
		<path class="st9" d="M144.403,99.501l-0.013,0.01c-1.811,1.455-2.587,3.844-1.977,6.085l0.004,0.013
			c0.98,3.602-1.625,7.186-5.354,7.365l-0.01,0c-2.323,0.112-4.358,1.591-5.181,3.766l0,0c-1.322,3.495-5.542,4.866-8.665,2.815
			l-0.001,0c-1.945-1.277-4.463-1.277-6.408,0l-0.001,0.001c-3.124,2.05-7.343,0.68-8.665-2.815l0,0
			c-0.823-2.175-2.858-3.655-5.181-3.766l-0.01-0.001c-3.729-0.179-6.334-3.763-5.354-7.365l0.004-0.013
			c0.61-2.241-0.166-4.63-1.977-6.085l-0.013-0.01c-2.909-2.337-2.909-6.767,0-9.104l0.013-0.01
			c1.811-1.455,2.587-3.844,1.977-6.085l-0.003-0.013c-0.98-3.602,1.625-7.187,5.354-7.365l0.01-0.001
			c2.323-0.111,4.358-1.591,5.181-3.766l0,0c1.322-3.495,5.542-4.866,8.665-2.815l0.001,0.001c1.945,1.277,4.463,1.277,6.408,0
			l0.001-0.001c3.124-2.05,7.343-0.68,8.665,2.815l0,0c0.823,2.175,2.858,3.655,5.181,3.766l0.01,0.001
			c3.729,0.179,6.335,3.763,5.354,7.366l-0.003,0.013c-0.61,2.241,0.167,4.63,1.977,6.085l0.012,0.01
			C147.312,92.734,147.312,97.163,144.403,99.501z"/>
		<path class="st3" d="M126.4,122.018c-1.41,0-2.803-0.41-4.018-1.207c-1.448-0.949-3.317-0.95-4.764-0.001
			c-1.873,1.229-4.168,1.537-6.296,0.845c-2.129-0.691-3.804-2.289-4.596-4.382c-0.612-1.618-2.123-2.717-3.85-2.8
			c-2.245-0.108-4.281-1.207-5.596-3.017c-1.314-1.809-1.732-4.084-1.145-6.241c0.457-1.679-0.12-3.453-1.466-4.535
			c-1.755-1.41-2.755-3.495-2.755-5.732c0-2.235,1-4.32,2.743-5.721c1.358-1.092,1.935-2.866,1.482-4.532
			c-0.591-2.171-0.173-4.445,1.142-6.255c1.315-1.809,3.351-2.908,5.585-3.016c1.738-0.083,3.249-1.182,3.861-2.8
			c0.792-2.093,2.467-3.69,4.596-4.382c2.13-0.693,4.424-0.384,6.295,0.844c1.448,0.949,3.317,0.95,4.764,0.001
			c1.872-1.23,4.167-1.538,6.296-0.845c2.129,0.691,3.804,2.289,4.596,4.382c0.612,1.618,2.123,2.717,3.85,2.8
			c2.245,0.107,4.281,1.207,5.596,3.017c1.315,1.809,1.732,4.084,1.145,6.241c-0.457,1.679,0.12,3.453,1.466,4.535
			c1.755,1.41,2.755,3.495,2.755,5.73c0,2.236-1,4.321-2.743,5.722c-0.008,0.007-0.017,0.014-0.025,0.02l-0.013,0.01
			c-1.321,1.062-1.898,2.837-1.444,4.503c0.59,2.171,0.173,4.445-1.142,6.254c-1.315,1.81-3.351,2.909-5.585,3.017
			c-1.738,0.083-3.249,1.182-3.861,2.8c-0.792,2.093-2.467,3.69-4.596,4.382C127.93,121.897,127.162,122.018,126.4,122.018z
			 M113.596,70.882c-0.451,0-0.905,0.071-1.346,0.214c-1.259,0.409-2.249,1.354-2.717,2.592c-1.035,2.735-3.591,4.594-6.513,4.733
			c-1.331,0.063-2.534,0.714-3.312,1.783c-0.777,1.07-1.024,2.415-0.677,3.691c0.77,2.829-0.205,5.831-2.481,7.66
			c-1.043,0.838-1.634,2.071-1.634,3.392c0,1.322,0.591,2.556,1.622,3.384c2.289,1.839,3.264,4.841,2.498,7.657
			c-0.351,1.289-0.104,2.634,0.673,3.703c0.778,1.07,1.982,1.721,3.302,1.784c2.932,0.14,5.488,1.998,6.522,4.734
			c0.468,1.237,1.459,2.182,2.717,2.591c1.26,0.411,2.616,0.225,3.723-0.499c2.446-1.604,5.608-1.607,8.055-0.001
			c1.107,0.727,2.466,0.909,3.723,0.5c1.259-0.409,2.249-1.354,2.717-2.591c1.035-2.736,3.591-4.595,6.513-4.734
			c1.331-0.063,2.535-0.714,3.312-1.784c0.777-1.069,1.024-2.414,0.677-3.689c-0.77-2.83,0.205-5.832,2.482-7.661l0.013-0.01
			c1.03-0.828,1.622-2.062,1.622-3.384c0-1.321-0.591-2.555-1.622-3.383c-2.289-1.839-3.264-4.841-2.498-7.657
			c0.351-1.289,0.104-2.634-0.673-3.703c-0.778-1.07-1.981-1.721-3.302-1.784c-2.932-0.14-5.488-1.998-6.522-4.734
			c-0.468-1.237-1.459-2.182-2.717-2.591c-1.259-0.408-2.615-0.226-3.723,0.499c-2.446,1.604-5.608,1.607-8.055,0.001
			C115.254,71.124,114.43,70.882,113.596,70.882z"/>
		<path class="st3" d="M126.4,122.018c-1.41,0-2.803-0.41-4.018-1.207c-1.448-0.949-3.317-0.95-4.764-0.001
			c-1.873,1.229-4.168,1.537-6.296,0.845c-2.129-0.691-3.804-2.289-4.596-4.382c-0.612-1.618-2.123-2.717-3.85-2.8
			c-2.245-0.108-4.281-1.207-5.596-3.017c-1.314-1.809-1.732-4.084-1.145-6.241c0.457-1.679-0.12-3.453-1.466-4.535
			c-1.755-1.41-2.755-3.495-2.755-5.732c0-2.235,1-4.32,2.743-5.721c1.358-1.092,1.935-2.866,1.482-4.532
			c-0.591-2.171-0.173-4.445,1.142-6.255c1.315-1.809,3.351-2.908,5.585-3.016c1.738-0.083,3.249-1.182,3.861-2.8
			c0.792-2.093,2.467-3.69,4.596-4.382c2.13-0.693,4.424-0.384,6.295,0.844c1.448,0.949,3.317,0.95,4.764,0.001
			c1.872-1.23,4.167-1.538,6.296-0.845c2.129,0.691,3.804,2.289,4.596,4.382c0.612,1.618,2.123,2.717,3.85,2.8
			c2.245,0.107,4.281,1.207,5.596,3.017c1.315,1.809,1.732,4.084,1.145,6.241c-0.457,1.679,0.12,3.453,1.466,4.535
			c1.755,1.41,2.755,3.495,2.755,5.73c0,2.236-1,4.321-2.743,5.722c-0.008,0.007-0.017,0.014-0.025,0.02l-0.013,0.01
			c-1.321,1.062-1.898,2.837-1.444,4.503c0.59,2.171,0.173,4.445-1.142,6.254c-1.315,1.81-3.351,2.909-5.585,3.017
			c-1.738,0.083-3.249,1.182-3.861,2.8c-0.792,2.093-2.467,3.69-4.596,4.382C127.93,121.897,127.162,122.018,126.4,122.018z
			 M113.596,70.882c-0.451,0-0.905,0.071-1.346,0.214c-1.259,0.409-2.249,1.354-2.717,2.592c-1.035,2.735-3.591,4.594-6.513,4.733
			c-1.331,0.063-2.534,0.714-3.312,1.783c-0.777,1.07-1.024,2.415-0.677,3.691c0.77,2.829-0.205,5.831-2.481,7.66
			c-1.043,0.838-1.634,2.071-1.634,3.392c0,1.322,0.591,2.556,1.622,3.384c2.289,1.839,3.264,4.841,2.498,7.657
			c-0.351,1.289-0.104,2.634,0.673,3.703c0.778,1.07,1.982,1.721,3.302,1.784c2.932,0.14,5.488,1.998,6.522,4.734
			c0.468,1.237,1.459,2.182,2.717,2.591c1.26,0.411,2.616,0.225,3.723-0.499c2.446-1.604,5.608-1.607,8.055-0.001
			c1.107,0.727,2.466,0.909,3.723,0.5c1.259-0.409,2.249-1.354,2.717-2.591c1.035-2.736,3.591-4.595,6.513-4.734
			c1.331-0.063,2.535-0.714,3.312-1.784c0.777-1.069,1.024-2.414,0.677-3.689c-0.77-2.83,0.205-5.832,2.482-7.661l0.013-0.01
			c1.03-0.828,1.622-2.062,1.622-3.384c0-1.321-0.591-2.555-1.622-3.383c-2.289-1.839-3.264-4.841-2.498-7.657
			c0.351-1.289,0.104-2.634-0.673-3.703c-0.778-1.07-1.981-1.721-3.302-1.784c-2.932-0.14-5.488-1.998-6.522-4.734
			c-0.468-1.237-1.459-2.182-2.717-2.591c-1.259-0.408-2.615-0.226-3.723,0.499c-2.446,1.604-5.608,1.607-8.055,0.001
			C115.254,71.124,114.43,70.882,113.596,70.882z"/>
		
			<ellipse transform="matrix(0.1602 -0.9871 0.9871 0.1602 7.0554 198.1901)" class="st14" cx="120" cy="94.949" rx="17.587" ry="17.587"/>
		<path class="st3" d="M120,114.036c-10.525,0-19.087-8.562-19.087-19.087c0-10.525,8.562-19.088,19.087-19.088
			s19.087,8.562,19.087,19.088C139.087,105.474,130.525,114.036,120,114.036z M120,78.861c-8.871,0-16.087,7.217-16.087,16.088
			c0,8.87,7.217,16.087,16.087,16.087s16.087-7.217,16.087-16.087C136.087,86.078,128.871,78.861,120,78.861z"/>
		<path class="st19" d="M120.901,85.107l2.585,5.239c0.146,0.297,0.429,0.502,0.756,0.549l5.781,0.84
			c0.824,0.12,1.153,1.132,0.557,1.713l-4.183,4.078c-0.237,0.231-0.345,0.563-0.289,0.889l0.988,5.758
			c0.141,0.821-0.721,1.446-1.458,1.059l-5.171-2.718c-0.293-0.154-0.642-0.154-0.935,0l-5.171,2.718
			c-0.737,0.388-1.598-0.238-1.458-1.059l0.988-5.758c0.056-0.326-0.052-0.658-0.289-0.889l-4.183-4.078
			c-0.596-0.581-0.267-1.594,0.557-1.713l5.781-0.84c0.327-0.048,0.61-0.253,0.756-0.549l2.585-5.239
			C119.468,84.361,120.532,84.361,120.901,85.107z"/>
		<path class="st3" d="M113.892,106.851c-0.517,0-1.031-0.162-1.47-0.481c-0.777-0.564-1.158-1.503-0.996-2.449l0.943-5.501
			l-3.997-3.896c-0.688-0.67-0.931-1.653-0.634-2.566c0.297-0.914,1.071-1.567,2.022-1.706l5.524-0.803l2.47-5.005
			c0.425-0.861,1.286-1.396,2.246-1.396s1.821,0.535,2.246,1.396l2.47,5.005l5.523,0.803c0.951,0.139,1.725,0.792,2.022,1.706
			c0.296,0.913,0.053,1.896-0.634,2.566l-3.997,3.896l0.943,5.501c0.163,0.946-0.219,1.885-0.996,2.449
			c-0.777,0.565-1.788,0.638-2.639,0.191l-4.94-2.598l-4.94,2.598C114.69,106.755,114.29,106.851,113.892,106.851z M120,100.898
			c0.4,0,0.799,0.096,1.163,0.287l4.284,2.252l-0.818-4.768c-0.14-0.812,0.129-1.64,0.719-2.216l3.466-3.379l-4.788-0.695
			c-0.818-0.12-1.523-0.633-1.887-1.372L120,86.671l-2.141,4.339c-0.365,0.738-1.069,1.251-1.884,1.37l-4.79,0.695l3.464,3.377
			c0.591,0.578,0.86,1.406,0.72,2.219l-0.817,4.767l4.282-2.252C119.2,100.994,119.601,100.898,120,100.898z M129.808,93.22h0.01
			H129.808z M119.556,85.771c0,0,0,0.001,0.001,0.002L119.556,85.771L119.556,85.771z"/>
		<path class="st18" d="M175.46,64.833l-15.14-15.15l-0.12-12.79c-0.1-10.45-8.69-18.96-19.15-18.97h15
			c10.46,0.01,19.05,8.52,19.15,18.97L175.46,64.833z"/>
		<path class="st10" d="M183.5,93.113v125.67c0,10.68-8.68,19.36-19.35,19.36h15c10.67,0,19.35-8.68,19.35-19.36V93.113H183.5z"/>
	</g>
</g>
</svg>
